<mxfile host="app.diagrams.net" modified="2024-01-26T11:23:51.904Z" agent="Mozilla/5.0 (Macintosh; Intel Mac OS X 10_15_7) AppleWebKit/605.1.15 (KHTML, like Gecko) Version/17.2.1 Safari/605.1.15" etag="KAR2Aes0ubqcdXU1Po4x" version="23.0.2" type="device">
  <diagram name="Strona-1" id="P0eVOyG5_RVOKSIzQoQu">
    <mxGraphModel dx="952" dy="754" grid="1" gridSize="10" guides="1" tooltips="1" connect="1" arrows="1" fold="1" page="1" pageScale="1" pageWidth="827" pageHeight="1169" math="0" shadow="0">
      <root>
        <mxCell id="0" />
        <mxCell id="1" parent="0" />
        <mxCell id="TKzSG03XWiKY2Yh5fDTk-5" style="edgeStyle=orthogonalEdgeStyle;rounded=0;orthogonalLoop=1;jettySize=auto;html=1;" edge="1" parent="1" source="TKzSG03XWiKY2Yh5fDTk-1" target="TKzSG03XWiKY2Yh5fDTk-4">
          <mxGeometry relative="1" as="geometry" />
        </mxCell>
        <mxCell id="TKzSG03XWiKY2Yh5fDTk-1" value="" style="strokeWidth=2;html=1;shape=mxgraph.flowchart.start_2;whiteSpace=wrap;fillColor=#000000;" vertex="1" parent="1">
          <mxGeometry x="140" y="160" width="30" height="30" as="geometry" />
        </mxCell>
        <mxCell id="TKzSG03XWiKY2Yh5fDTk-2" value="" style="ellipse;shape=doubleEllipse;whiteSpace=wrap;html=1;fillColor=#000000;strokeColor=#EA6B66;perimeterSpacing=0;strokeWidth=2;" vertex="1" parent="1">
          <mxGeometry x="140" y="800" width="30" height="30" as="geometry" />
        </mxCell>
        <mxCell id="TKzSG03XWiKY2Yh5fDTk-7" style="edgeStyle=orthogonalEdgeStyle;rounded=0;orthogonalLoop=1;jettySize=auto;html=1;" edge="1" parent="1" source="TKzSG03XWiKY2Yh5fDTk-4" target="TKzSG03XWiKY2Yh5fDTk-6">
          <mxGeometry relative="1" as="geometry" />
        </mxCell>
        <mxCell id="TKzSG03XWiKY2Yh5fDTk-4" value="Uruchomienie end pointa Load Balancera" style="rounded=1;whiteSpace=wrap;html=1;" vertex="1" parent="1">
          <mxGeometry x="95" y="240" width="120" height="60" as="geometry" />
        </mxCell>
        <mxCell id="TKzSG03XWiKY2Yh5fDTk-11" value="" style="edgeStyle=orthogonalEdgeStyle;rounded=0;orthogonalLoop=1;jettySize=auto;html=1;" edge="1" parent="1" source="TKzSG03XWiKY2Yh5fDTk-6" target="TKzSG03XWiKY2Yh5fDTk-10">
          <mxGeometry relative="1" as="geometry" />
        </mxCell>
        <mxCell id="TKzSG03XWiKY2Yh5fDTk-15" value="Użytkownik uruchamia &lt;br&gt;wykonywane się kodu" style="edgeLabel;html=1;align=center;verticalAlign=middle;resizable=0;points=[];" vertex="1" connectable="0" parent="TKzSG03XWiKY2Yh5fDTk-11">
          <mxGeometry x="-0.2" y="4" relative="1" as="geometry">
            <mxPoint x="56" y="2" as="offset" />
          </mxGeometry>
        </mxCell>
        <mxCell id="TKzSG03XWiKY2Yh5fDTk-6" value="Oczekiwanie na zapytanie o przydzielenie zasobów" style="rounded=1;whiteSpace=wrap;html=1;" vertex="1" parent="1">
          <mxGeometry x="95" y="340" width="120" height="60" as="geometry" />
        </mxCell>
        <mxCell id="TKzSG03XWiKY2Yh5fDTk-13" value="" style="edgeStyle=orthogonalEdgeStyle;rounded=0;orthogonalLoop=1;jettySize=auto;html=1;" edge="1" parent="1" source="TKzSG03XWiKY2Yh5fDTk-10" target="TKzSG03XWiKY2Yh5fDTk-12">
          <mxGeometry relative="1" as="geometry" />
        </mxCell>
        <mxCell id="TKzSG03XWiKY2Yh5fDTk-14" value="Brak dostępnych serwerów&amp;nbsp;" style="edgeLabel;html=1;align=center;verticalAlign=middle;resizable=0;points=[];" vertex="1" connectable="0" parent="TKzSG03XWiKY2Yh5fDTk-13">
          <mxGeometry x="0.025" y="3" relative="1" as="geometry">
            <mxPoint y="-7" as="offset" />
          </mxGeometry>
        </mxCell>
        <mxCell id="TKzSG03XWiKY2Yh5fDTk-17" value="" style="edgeStyle=orthogonalEdgeStyle;rounded=0;orthogonalLoop=1;jettySize=auto;html=1;" edge="1" parent="1" source="TKzSG03XWiKY2Yh5fDTk-10" target="TKzSG03XWiKY2Yh5fDTk-16">
          <mxGeometry relative="1" as="geometry" />
        </mxCell>
        <mxCell id="TKzSG03XWiKY2Yh5fDTk-10" value="Pobranie listy dostępnych serwerów&amp;nbsp;" style="whiteSpace=wrap;html=1;rounded=1;" vertex="1" parent="1">
          <mxGeometry x="95" y="470" width="120" height="60" as="geometry" />
        </mxCell>
        <mxCell id="TKzSG03XWiKY2Yh5fDTk-21" style="edgeStyle=orthogonalEdgeStyle;rounded=0;orthogonalLoop=1;jettySize=auto;html=1;" edge="1" parent="1" source="TKzSG03XWiKY2Yh5fDTk-12" target="TKzSG03XWiKY2Yh5fDTk-2">
          <mxGeometry relative="1" as="geometry">
            <Array as="points">
              <mxPoint x="450" y="815" />
            </Array>
          </mxGeometry>
        </mxCell>
        <mxCell id="TKzSG03XWiKY2Yh5fDTk-12" value="Odesłanie informacji o błędzie" style="whiteSpace=wrap;html=1;rounded=1;" vertex="1" parent="1">
          <mxGeometry x="390" y="470" width="120" height="60" as="geometry" />
        </mxCell>
        <mxCell id="TKzSG03XWiKY2Yh5fDTk-19" value="" style="edgeStyle=orthogonalEdgeStyle;rounded=0;orthogonalLoop=1;jettySize=auto;html=1;" edge="1" parent="1" source="TKzSG03XWiKY2Yh5fDTk-16" target="TKzSG03XWiKY2Yh5fDTk-18">
          <mxGeometry relative="1" as="geometry" />
        </mxCell>
        <mxCell id="TKzSG03XWiKY2Yh5fDTk-16" value="Przekazanie zadania do wolnego pracownika" style="whiteSpace=wrap;html=1;rounded=1;" vertex="1" parent="1">
          <mxGeometry x="95" y="580" width="120" height="60" as="geometry" />
        </mxCell>
        <mxCell id="TKzSG03XWiKY2Yh5fDTk-20" style="edgeStyle=orthogonalEdgeStyle;rounded=0;orthogonalLoop=1;jettySize=auto;html=1;entryX=0.5;entryY=0;entryDx=0;entryDy=0;" edge="1" parent="1" source="TKzSG03XWiKY2Yh5fDTk-18" target="TKzSG03XWiKY2Yh5fDTk-2">
          <mxGeometry relative="1" as="geometry" />
        </mxCell>
        <mxCell id="TKzSG03XWiKY2Yh5fDTk-18" value="Zwrócenie statusu" style="whiteSpace=wrap;html=1;rounded=1;" vertex="1" parent="1">
          <mxGeometry x="95" y="690" width="120" height="60" as="geometry" />
        </mxCell>
      </root>
    </mxGraphModel>
  </diagram>
</mxfile>
